<?xml version="1.0" encoding="utf-8"?>
<!-- Generator: Adobe Illustrator 15.0.0, SVG Export Plug-In . SVG Version: 6.00 Build 0)  -->
<!DOCTYPE svg PUBLIC "-//W3C//DTD SVG 1.1//EN" "http://www.w3.org/Graphics/SVG/1.1/DTD/svg11.dtd">
<svg version="1.1" id="Layer_1" xmlns="http://www.w3.org/2000/svg" xmlns:xlink="http://www.w3.org/1999/xlink" x="0px" y="0px"
	 width="197.334px" height="62.912px" viewBox="0 0 197.334 62.912" enable-background="new 0 0 197.334 62.912"
	 xml:space="preserve">
<g>
	<path fill="#FFFFFF" d="M2.667,3.273h59.668v31.91C61.115,15.511,46.521,5.361,31.922,5.09C19.711,4.864,10.237,9.215,2.755,18.001
		L2.667,3.273z"/>
	<path fill="#FFFFFF" d="M62.335,40.032C61.378,51.019,52.036,58.937,39.87,60.185h22.465V40.032z M2.755,47.977
		c0.241-1.289,0.523-2.586,0.848-3.881c4.999,0.438,13.963-2.752,15.289-8.911c0.551-2.561-0.553-7.811-5.58-7.433
		c-3.819,0.287-4.409,6.1-0.923,7.364c-1.022,1.993-4.646,3.277-6.83,2.676c1.879-5.02,4.488-9.716,7.931-13.394
		c2.738,2.853,10.703,5.68,15.383,2.826c2.287-1.394,3.449-5.164,0.852-7.23c-2.583-2.056-6.427,0.872-5.144,3.8
		c-2.19,0.646-5.534-0.773-6.571-3.263c3.25-2.172,7.045-3.542,11.437-3.769c1.279-0.065,2.563,0.002,3.83,0.187
		c-0.698,3.863,0.434,9.005,4.612,10.723c2.819,1.158,6.132,0.299,6.248-2.566c0.12-2.939-3.92-4.246-5.399-1.813
		c-1.381-1.102-1.717-3.127-0.874-5.132c6.529,2.524,11.685,8.135,11.735,14.606c0.08,10.367-9.113,17.031-15.095,12.691
		c4.459,0.243,8.201-2.683,8.201-8.409c0-10.036-12.854-11.244-19.092-5.167c-10.556,10.286-4.854,26.471,10.04,28.301H2.667
		L2.755,47.977z"/>
	<path fill="#FFFFFF" d="M150.339,52.175h-1.387l0.843,5.412c-0.354,0.676-0.698,0.976-1.197,0.976c-0.244,0-0.455-0.089-0.632-0.2
		l-0.366,1.064c0.21,0.111,0.543,0.211,0.953,0.211c0.876,0,1.564-0.255,2.407-1.808l3.083-5.656h-1.409l-1.375,2.65
		c-0.421,0.821-0.576,1.564-0.576,1.564h-0.045c0,0,0.056-0.599-0.045-1.531L150.339,52.175z M147.854,53.783
		c0.033-0.178,0.033-0.311,0.033-0.466c0-0.788-0.51-1.265-1.308-1.265c-0.821,0-1.299,0.411-1.643,1.165l0.022-1.042h-1.176
		l-0.898,5.124h1.342l0.477-2.75c0.189-1.021,0.711-1.397,1.176-1.397c0.555,0,0.688,0.388,0.6,0.909l-0.345,1.952
		c-0.154,0.866,0.179,1.342,1.065,1.342c0.244,0,0.511-0.044,0.742-0.122l0.2-0.998c-0.134,0.034-0.233,0.055-0.333,0.055
		c-0.321,0-0.344-0.222-0.299-0.477L147.854,53.783z M141.988,52.175h-1.176l-0.311,0.854c-0.078-0.687-0.544-0.976-1.275-0.976
		c-1.52,0-2.451,1.531-2.451,3.283c0,1.309,0.632,2.096,1.708,2.096c0.643,0,1.209-0.276,1.475-0.998
		c0.033,0.644,0.388,0.921,1.088,0.921c0.243,0,0.51-0.044,0.731-0.122l0.211-0.998c-0.133,0.034-0.233,0.055-0.333,0.055
		c-0.322,0-0.345-0.222-0.3-0.477L141.988,52.175z M140.112,55.169c-0.121,0.731-0.498,1.241-1.119,1.241
		c-0.565,0-0.843-0.51-0.843-1.164c0-1.165,0.532-2.185,1.419-2.185c0.644,0,0.821,0.621,0.71,1.242L140.112,55.169z
		 M132.096,56.511c0.11,0.576,0.644,0.919,1.342,0.919c1.619,0,2.584-1.419,2.584-3.249c0-1.431-0.688-2.13-1.708-2.13
		c-0.798,0-1.331,0.388-1.631,1.109l0.023-0.987h-1.187l-1.298,7.375h1.353L132.096,56.511z M132.461,54.448
		c0.155-0.876,0.644-1.353,1.209-1.353s0.91,0.421,0.91,1.186c0,1.143-0.51,2.185-1.409,2.185c-0.677,0-0.965-0.621-0.854-1.253
		L132.461,54.448z M126.04,57.298l0.467-2.75c0.165-1.021,0.609-1.397,1.086-1.397c0.51,0,0.644,0.388,0.543,0.909l-0.343,1.952
		c-0.146,0.866,0.188,1.342,1.074,1.342c0.245,0,0.512-0.044,0.732-0.122l0.211-0.998c-0.133,0.034-0.231,0.055-0.332,0.055
		c-0.321,0-0.345-0.222-0.3-0.477l0.344-2.029c0.033-0.178,0.033-0.311,0.033-0.466c0-0.788-0.488-1.265-1.275-1.265
		c-0.82,0-1.33,0.411-1.619,1.231c0-0.798-0.478-1.231-1.264-1.231c-0.832,0-1.231,0.399-1.554,1.165l0.022-1.042h-1.175
		l-0.899,5.124h1.343l0.477-2.75c0.188-1.021,0.61-1.397,1.086-1.397c0.522,0,0.645,0.388,0.555,0.909l-0.564,3.239H126.04z
		 M118.72,53.117c0.578,0,0.91,0.422,0.91,1.176c0,1.164-0.477,2.118-1.286,2.118c-0.566,0-0.909-0.41-0.909-1.198
		C117.435,54.06,117.922,53.117,118.72,53.117 M118.843,52.052c-1.874,0-2.807,1.509-2.807,3.205c0,1.431,0.943,2.173,2.219,2.173
		c1.841,0,2.784-1.474,2.784-3.138C121.039,52.884,120.206,52.052,118.843,52.052 M114.151,55.291
		c-0.411,0.787-0.865,0.998-1.485,0.998c-0.843,0-1.343-0.61-1.343-1.619c0-1.553,0.699-2.86,1.919-2.86
		c0.687,0,1.021,0.399,1.109,1.108l1.396-0.477c-0.2-1.098-0.941-1.807-2.406-1.807c-1.852,0-3.404,1.519-3.404,4.103
		c0,1.653,0.932,2.694,2.65,2.694c1.286,0,2.162-0.487,2.706-1.53L114.151,55.291z M106.688,52.175h-1.188l-0.299,0.854
		c-0.078-0.687-0.588-0.976-1.275-0.976c-1.553,0-2.484,1.464-2.484,3.216c0,1.298,0.643,2.097,1.72,2.097
		c0.643,0,1.197-0.256,1.463-0.965l-0.165,0.832c-0.167,0.854-0.556,1.397-1.465,1.397c-0.644,0-1.143-0.388-1.242-0.931
		l-1.042,0.655c0.255,0.832,1.008,1.286,2.251,1.286c1.663,0,2.539-0.721,2.817-2.285L106.688,52.175z M104.836,55.113
		c-0.145,0.799-0.543,1.231-1.176,1.231c-0.577,0-0.831-0.511-0.831-1.165c0-1.154,0.499-2.119,1.397-2.119
		c0.688,0,0.864,0.621,0.753,1.242L104.836,55.113z M100.333,53.783c0.033-0.178,0.033-0.311,0.033-0.466
		c0-0.788-0.51-1.265-1.308-1.265c-0.821,0-1.297,0.411-1.642,1.165l0.023-1.042h-1.176l-0.898,5.124h1.342l0.476-2.75
		c0.188-1.021,0.711-1.397,1.177-1.397c0.553,0,0.687,0.388,0.598,0.909l-0.343,1.952c-0.156,0.866,0.177,1.342,1.064,1.342
		c0.244,0,0.51-0.044,0.743-0.122l0.199-0.998c-0.133,0.034-0.231,0.055-0.331,0.055c-0.323,0-0.345-0.222-0.3-0.477L100.333,53.783
		z M93.202,50.589c0,0.488,0.377,0.776,0.821,0.776c0.488,0,0.854-0.289,0.854-0.776c0-0.511-0.366-0.799-0.854-0.799
		C93.579,49.79,93.202,50.078,93.202,50.589 M94.478,52.175h-1.341l-0.677,3.836c-0.156,0.866,0.177,1.342,1.064,1.342
		c0.244,0,0.51-0.044,0.743-0.122l0.199-0.998c-0.132,0.034-0.232,0.055-0.333,0.055c-0.321,0-0.344-0.222-0.3-0.477L94.478,52.175z
		 M91.849,49.89h-1.341l-0.543,3.139c-0.079-0.687-0.589-0.976-1.276-0.976c-1.564,0-2.495,1.531-2.495,3.283
		c0,1.309,0.632,2.096,1.708,2.096c0.644,0,1.276-0.266,1.52-0.998c0.033,0.644,0.389,0.921,1.087,0.921
		c0.244,0,0.51-0.044,0.742-0.122l0.2-0.998c-0.133,0.034-0.232,0.055-0.333,0.055c-0.321,0-0.343-0.222-0.299-0.477L91.849,49.89z
		 M89.587,55.169c-0.145,0.798-0.554,1.241-1.175,1.241c-0.577,0-0.844-0.51-0.844-1.164c0-1.154,0.533-2.174,1.42-2.174
		c0.676,0,0.865,0.61,0.754,1.231L89.587,55.169z M85.706,49.89h-1.343l-1.076,6.122c-0.156,0.866,0.178,1.342,1.064,1.342
		c0.245,0,0.511-0.044,0.743-0.122l0.2-0.998c-0.133,0.034-0.232,0.055-0.333,0.055c-0.321,0-0.344-0.222-0.299-0.477L85.706,49.89z
		 M80.094,53.117c0.577,0,0.909,0.422,0.909,1.176c0,1.164-0.477,2.118-1.286,2.118c-0.566,0-0.909-0.41-0.909-1.198
		C78.808,54.06,79.296,53.117,80.094,53.117 M80.216,52.052c-1.875,0-2.806,1.509-2.806,3.205c0,1.431,0.942,2.173,2.218,2.173
		c1.841,0,2.783-1.474,2.783-3.138C82.412,52.884,81.581,52.052,80.216,52.052 M71.721,57.298l0.477-2.728h2.695l-0.477,2.728h1.364
		l1.142-6.532h-1.364l-0.465,2.628h-2.684l0.454-2.628h-1.364l-1.142,6.532H71.721z"/>
	<path fill="#FFFFFF" d="M190.973,43.226c-0.277,0.156-0.577,0.255-0.865,0.255c-0.31,0-0.51-0.166-0.421-0.632l0.433-2.439h1.33
		l0.189-1.032h-1.343l0.212-1.242l-1.354,0.155l-0.188,1.087h-0.743l-0.177,1.032h0.72l-0.421,2.417
		c-0.232,1.275,0.321,1.808,1.354,1.808c0.465,0,0.964-0.111,1.274-0.299V43.226z M184.252,41.396
		c0.155-0.61,0.521-1.154,1.121-1.154c0.554,0,0.753,0.388,0.753,0.854c0,0.111-0.01,0.211-0.033,0.299H184.252z M185.019,43.614
		c-0.722,0-1.021-0.665-0.91-1.431h3.138c0.145-0.31,0.223-0.688,0.223-1.076c0-0.954-0.621-1.853-2.03-1.853
		c-1.387,0-2.706,1.121-2.706,3.172c0,1.342,0.799,2.208,2.174,2.208c1.265,0,1.984-0.411,2.308-1.453l-1.242-0.3
		C185.826,43.393,185.55,43.614,185.019,43.614 M177.698,43.182c0.078,0.987,0.831,1.453,1.963,1.453
		c1.219,0,2.106-0.477,2.106-1.597c0-0.854-0.332-1.286-1.286-1.619c-0.732-0.266-0.876-0.41-0.876-0.709
		c0-0.333,0.267-0.543,0.676-0.543c0.499,0,0.766,0.277,0.766,0.743l1.143-0.244c0-0.898-0.609-1.409-1.819-1.409
		c-1.131,0-2.029,0.511-2.029,1.642c0,0.787,0.422,1.253,1.31,1.519c0.62,0.2,0.798,0.389,0.798,0.754
		c0,0.421-0.311,0.555-0.732,0.555c-0.51,0-0.875-0.3-0.898-0.92L177.698,43.182z M172.951,43.182
		c0.077,0.987,0.832,1.453,1.963,1.453c1.22,0,2.107-0.477,2.107-1.597c0-0.854-0.333-1.286-1.286-1.619
		c-0.732-0.266-0.876-0.41-0.876-0.709c0-0.333,0.265-0.543,0.676-0.543c0.499,0,0.766,0.277,0.766,0.743l1.143-0.244
		c0-0.898-0.61-1.409-1.819-1.409c-1.131,0-2.029,0.511-2.029,1.642c0,0.787,0.422,1.253,1.309,1.519
		c0.62,0.2,0.799,0.389,0.799,0.754c0,0.421-0.312,0.555-0.732,0.555c-0.51,0-0.876-0.3-0.898-0.92L172.951,43.182z M169.08,40.897
		c0.545-1.042,0.81-1.885,0.81-1.885h0.045c-0.011,0,0.089,1.386,0.389,2.872h-1.774L169.08,40.897z M170.789,44.501h1.396
		l-1.229-6.532h-1.687l-3.516,6.532h1.452l0.776-1.507h2.54L170.789,44.501z M161.75,37.792c0,0.488,0.378,0.776,0.821,0.776
		c0.488,0,0.854-0.289,0.854-0.776c0-0.51-0.365-0.798-0.854-0.798C162.128,36.994,161.75,37.282,161.75,37.792 M163.026,39.378
		h-1.343l-0.677,3.837c-0.154,0.865,0.179,1.342,1.064,1.342c0.245,0,0.512-0.045,0.743-0.123l0.2-0.998
		c-0.134,0.033-0.233,0.055-0.333,0.055c-0.321,0-0.344-0.222-0.299-0.477L163.026,39.378z M157.658,39.378h-1.197l-0.988,2.307
		c-0.432,1.021-0.598,1.863-0.598,1.863h-0.045c0,0,0.066-0.82-0.022-1.852l-0.188-2.318h-1.353l0.521,5.124h1.563l0.844-2.018
		c0.388-0.898,0.555-1.653,0.555-1.653h0.045c0,0-0.078,0.766,0,1.642l0.243,2.029h1.574l2.252-5.124h-1.408l-0.977,2.318
		c-0.432,1.042-0.587,1.852-0.587,1.852h-0.045c0,0,0.111-0.832,0-1.863L157.658,39.378z M151.236,37.97l-1.142,6.532h1.364
		l1.143-6.532H151.236z M146.724,39.378h-1.175l-0.312,0.854c-0.078-0.687-0.543-0.976-1.274-0.976c-1.52,0-2.452,1.531-2.452,3.284
		c0,1.309,0.633,2.096,1.709,2.096c0.643,0,1.208-0.277,1.475-0.998c0.033,0.643,0.388,0.921,1.086,0.921
		c0.245,0,0.512-0.045,0.732-0.123l0.211-0.998c-0.134,0.033-0.233,0.055-0.333,0.055c-0.321,0-0.344-0.222-0.299-0.477
		L146.724,39.378z M144.85,42.373c-0.122,0.731-0.499,1.242-1.12,1.242c-0.566,0-0.843-0.51-0.843-1.165
		c0-1.164,0.531-2.185,1.419-2.185c0.644,0,0.821,0.621,0.71,1.242L144.85,42.373z M140.547,43.226
		c-0.277,0.156-0.577,0.255-0.865,0.255c-0.311,0-0.51-0.166-0.422-0.632l0.433-2.439h1.33l0.189-1.032h-1.342l0.211-1.242
		l-1.353,0.155l-0.189,1.087h-0.743l-0.178,1.032h0.721l-0.42,2.417c-0.233,1.275,0.321,1.808,1.353,1.808
		c0.465,0,0.965-0.111,1.275-0.299V43.226z M136.787,39.378h-1.176l-0.312,0.854c-0.076-0.687-0.543-0.976-1.274-0.976
		c-1.52,0-2.45,1.531-2.45,3.284c0,1.309,0.632,2.096,1.707,2.096c0.644,0,1.208-0.277,1.475-0.998
		c0.034,0.643,0.389,0.921,1.088,0.921c0.243,0,0.51-0.045,0.731-0.123l0.211-0.998c-0.133,0.033-0.232,0.055-0.333,0.055
		c-0.321,0-0.343-0.222-0.3-0.477L136.787,39.378z M134.913,42.373c-0.122,0.731-0.499,1.242-1.12,1.242
		c-0.565,0-0.844-0.51-0.844-1.165c0-1.164,0.533-2.185,1.42-2.185c0.645,0,0.821,0.621,0.709,1.242L134.913,42.373z
		 M130.677,39.378h-1.176l-0.311,0.854c-0.078-0.687-0.544-0.976-1.275-0.976c-1.52,0-2.451,1.531-2.451,3.284
		c0,1.309,0.632,2.096,1.708,2.096c0.644,0,1.209-0.277,1.475-0.998c0.033,0.643,0.389,0.921,1.087,0.921
		c0.244,0,0.511-0.045,0.732-0.123l0.211-0.998c-0.134,0.033-0.233,0.055-0.333,0.055c-0.321,0-0.345-0.222-0.3-0.477
		L130.677,39.378z M128.803,42.373c-0.123,0.731-0.5,1.242-1.121,1.242c-0.565,0-0.843-0.51-0.843-1.165
		c0-1.164,0.532-2.185,1.42-2.185c0.643,0,0.82,0.621,0.709,1.242L128.803,42.373z M122.792,43.836
		c0.255,0.565,0.62,0.722,1.086,0.722c0.311,0,0.521-0.045,0.743-0.112l0.2-1.031c-0.467,0.133-0.71,0.111-0.909-0.288l-0.711-1.419
		l2.229-2.329h-1.619l-1.675,1.83h-0.255l0.731-4.115h-1.353l-1.298,7.408h1.342l0.399-2.285h0.333L122.792,43.836z M119.065,39.378
		h-1.176l-0.311,0.854c-0.078-0.687-0.543-0.976-1.275-0.976c-1.521,0-2.451,1.531-2.451,3.284c0,1.309,0.632,2.096,1.708,2.096
		c0.643,0,1.209-0.277,1.476-0.998c0.033,0.643,0.388,0.921,1.086,0.921c0.243,0,0.51-0.045,0.731-0.123l0.212-0.998
		c-0.134,0.033-0.233,0.055-0.333,0.055c-0.322,0-0.344-0.222-0.3-0.477L119.065,39.378z M117.19,42.373
		c-0.121,0.731-0.499,1.242-1.12,1.242c-0.565,0-0.842-0.51-0.842-1.165c0-1.164,0.531-2.185,1.419-2.185
		c0.644,0,0.82,0.621,0.71,1.242L117.19,42.373z M112.755,40.986c0.033-0.177,0.033-0.311,0.033-0.466
		c0-0.787-0.51-1.265-1.31-1.265c-0.82,0-1.296,0.411-1.63,1.166l0.588-3.328h-1.353l-1.298,7.408h1.342l0.477-2.75
		c0.189-1.021,0.71-1.397,1.176-1.397c0.555,0,0.688,0.388,0.6,0.909l-0.345,1.952c-0.155,0.865,0.179,1.342,1.064,1.342
		c0.245,0,0.51-0.045,0.743-0.123l0.2-0.998c-0.134,0.033-0.233,0.055-0.333,0.055c-0.321,0-0.344-0.222-0.299-0.477L112.755,40.986
		z M104.56,39.378h-1.198l-0.987,2.307c-0.432,1.021-0.599,1.863-0.599,1.863h-0.045c0,0,0.067-0.82-0.021-1.852l-0.189-2.318
		h-1.353l0.521,5.124h1.564l0.843-2.018c0.388-0.898,0.555-1.653,0.555-1.653h0.043c0,0-0.077,0.766,0,1.642l0.245,2.029h1.574
		l2.251-5.124h-1.408l-0.976,2.318c-0.434,1.042-0.588,1.852-0.588,1.852h-0.044c0,0,0.11-0.832,0-1.863L104.56,39.378z
		 M96.984,40.321c0.576,0,0.91,0.421,0.91,1.175c0,1.165-0.478,2.118-1.288,2.118c-0.565,0-0.909-0.41-0.909-1.198
		C95.698,41.263,96.186,40.321,96.984,40.321 M97.106,39.255c-1.874,0-2.806,1.509-2.806,3.206c0,1.431,0.942,2.174,2.218,2.174
		c1.841,0,2.784-1.475,2.784-3.139C99.303,40.087,98.471,39.255,97.106,39.255 M93.725,39.378h-1.187l-0.3,0.854
		c-0.078-0.687-0.587-0.976-1.275-0.976c-1.553,0-2.484,1.464-2.484,3.217c0,1.297,0.643,2.096,1.719,2.096
		c0.644,0,1.198-0.255,1.463-0.964l-0.166,0.831c-0.166,0.854-0.554,1.397-1.463,1.397c-0.644,0-1.142-0.388-1.242-0.932
		l-1.043,0.655c0.255,0.832,1.009,1.286,2.251,1.286c1.663,0,2.54-0.72,2.817-2.284L93.725,39.378z M91.872,42.317
		c-0.144,0.799-0.543,1.231-1.175,1.231c-0.578,0-0.833-0.51-0.833-1.164c0-1.154,0.5-2.119,1.397-2.119
		c0.688,0,0.865,0.621,0.754,1.242L91.872,42.317z M87.37,40.986c0.033-0.177,0.033-0.311,0.033-0.466
		c0-0.787-0.51-1.265-1.31-1.265c-0.821,0-1.296,0.411-1.641,1.166l0.022-1.043h-1.176l-0.897,5.124h1.341l0.477-2.75
		c0.189-1.021,0.71-1.397,1.176-1.397c0.554,0,0.688,0.388,0.599,0.909l-0.343,1.952c-0.155,0.865,0.177,1.342,1.064,1.342
		c0.244,0,0.51-0.045,0.743-0.123l0.199-0.998c-0.133,0.033-0.232,0.055-0.333,0.055c-0.321,0-0.343-0.222-0.299-0.477L87.37,40.986
		z M79.329,40.321c0.576,0,0.909,0.421,0.909,1.175c0,1.165-0.477,2.118-1.287,2.118c-0.566,0-0.909-0.41-0.909-1.198
		C78.043,41.263,78.53,40.321,79.329,40.321 M79.452,39.255c-1.875,0-2.806,1.509-2.806,3.206c0,1.431,0.942,2.174,2.218,2.174
		c1.841,0,2.783-1.475,2.783-3.139C81.647,40.087,80.815,39.255,79.452,39.255 M72.675,39.101h0.987
		c0.632,0,0.887,0.267,0.887,0.754c0,0.809-0.51,1.109-1.187,1.109h-1.02L72.675,39.101z M75.636,44.501
		c-0.166-0.21-0.233-0.444-0.278-0.698l-0.21-1.242c-0.111-0.632-0.344-0.876-0.932-0.965v-0.044
		c0.844-0.067,1.742-0.632,1.742-1.919c0-1.153-0.631-1.663-2.051-1.663h-2.407l-1.142,6.532h1.364l0.422-2.417h0.699
		c0.576,0,0.787,0.122,0.887,0.731l0.166,1.032c0.045,0.266,0.123,0.51,0.267,0.654H75.636z"/>
	<path fill="#FFFFFF" d="M188.915,21.923c-0.977,2.508-2.928,3.763-5.111,3.763c-4.275,0-6.412-2.927-6.412-7.945
		c0-5.111,2.369-8.177,6.226-8.177c2.928,0,4.089,1.626,4.832,4.181l6.784-3.298c-1.999-4.414-5.576-7.063-11.43-7.063
		c-8.596,0-13.566,5.064-13.566,14.17c0,9.107,5.203,14.31,12.729,14.31c6.318,0,9.524-2.137,12.033-6.458L188.915,21.923z
		 M148.215,31.308V20.436h9.711v10.872h6.969V3.943h-6.969v10.454h-9.711V3.943h-6.969v27.365H148.215z M120.618,18.253
		c1.533-4.46,2.229-7.945,2.229-7.945h0.187c0,0,0.557,3.438,2.183,7.991l0.744,2.091h-6.087L120.618,18.253z M129.816,31.308h7.481
		l-9.99-27.365h-8.502l-9.896,27.365h7.294l1.719-5.11h10.083L129.816,31.308z M97.992,31.308h6.969V3.943h-6.969V31.308z
		 M77.411,9.843h3.764c2.276,0,3.529,1.162,3.529,3.299c0,2.416-1.347,3.206-3.576,3.206h-3.717V9.843z M93.347,31.308
		c-0.93-0.976-1.255-1.858-1.58-2.973l-1.394-5.018c-0.65-2.37-1.951-3.392-4.46-3.81v-0.139c3.578-0.418,5.901-2.648,5.901-6.876
		c0-6.458-4.089-8.549-10.175-8.549H70.441v27.365h6.969v-9.153h2.416c1.905,0,2.742,0.325,3.253,2.37l0.975,3.856
		c0.279,1.162,0.649,2.277,1.533,2.927H93.347z"/>
</g>
</svg>
