<svg data-name="Layer 1" xmlns="http://www.w3.org/2000/svg" width="271.6" height="89.5" viewBox="0 0 271.6 89.5"><title>gdc-logo--desktop</title><path d="M88.2 82h1.4v-9.6h3.3v-1.2h-8v1.2h3.3zm12-3.6v-.7c0-1.4-.7-3.6-3.2-3.6-2.3 0-3.6 1.8-3.6 4.2a3.6 3.6 0 0 0 3.8 3.9 6.94 6.94 0 0 0 2.6-.5l-.2-1a5.18 5.18 0 0 1-2.1.4 2.56 2.56 0 0 1-2.7-2.7zm-5.4-1a2.3 2.3 0 0 1 2.2-2.3 2 2 0 0 1 2 2.3zm10.7 4.6h1.4v-4.1l1-1.2 3.6 5.3h1.6l-4.2-6.2 3.9-4.6h-1.7l-3.3 4a5 5 0 0 0-.8 1.2v-5.2h-1.4V82h-.1zm14.2 0a10.89 10.89 0 0 1-.1-1.9v-2.9c0-1.6-.6-3.2-2.9-3.2a4.62 4.62 0 0 0-2.5.7l.3.9a3.38 3.38 0 0 1 2-.6 1.64 1.64 0 0 1 1.8 1.8v.2c-3 0-4.7 1-4.7 2.9a2.21 2.21 0 0 0 2.4 2.2 2.84 2.84 0 0 0 2.4-1.2l.1 1h1.2zm-1.5-2.6a.6.6 0 0 1-.1.4 1.9 1.9 0 0 1-1.9 1.3 1.21 1.21 0 0 1-1.3-1.3c0-1.5 1.7-1.8 3.3-1.7zm10.1-5.1h-1.4v4.8a1.48 1.48 0 0 1-.1.7 2.14 2.14 0 0 1-1.9 1.3c-1.3 0-1.7-1-1.7-2.5v-4.3h-1.4v4.5c0 2.7 1.5 3.4 2.7 3.4a3 3 0 0 0 2.6-1.4l.1 1.3h1.2c0-.6-.1-1.3-.1-2.1zm2.3 7.7h1.4v-4.7a1.7 1.7 0 0 1 .1-.7 2 2 0 0 1 1.9-1.4c1.3 0 1.8 1 1.8 2.3V82h1.4v-4.6c0-2.7-1.7-3.3-2.7-3.3a2.82 2.82 0 0 0-2.6 1.5l-.1-1.3h-1.2c0 .6.1 1.3.1 2.1V82zm10.3 0v-7.7h-1.4V82zm-.7-10.7a.9.9 0 0 0-.9.9.88.88 0 0 0 .8.9.84.84 0 0 0 .9-.9.77.77 0 0 0-.8-.9zm3.1 10.7h1.4v-4.7a1.48 1.48 0 0 1 .1-.7 2 2 0 0 1 1.9-1.4c1.3 0 1.8 1.1 1.8 2.3v4.4h1.4v-4.6c0-2.7-1.7-3.3-2.7-3.3a3.26 3.26 0 0 0-1.4.4 2.41 2.41 0 0 0-1 1v-4.8h-1.4V82zm15.1-3.6v-.7c0-1.4-.7-3.6-3.2-3.6-2.3 0-3.6 1.8-3.6 4.2a3.6 3.6 0 0 0 3.8 3.9 6.94 6.94 0 0 0 2.6-.5l-.2-1a5.18 5.18 0 0 1-2.1.4 2.56 2.56 0 0 1-2.7-2.7zm-5.5-1a2.3 2.3 0 0 1 2.2-2.3 2 2 0 0 1 2 2.3zm7.2 4.6h1.4v-4.1a1.7 1.7 0 0 1 .1-.7 1.94 1.94 0 0 1 1.9-1.8h.5v-1.3h-.4a2.32 2.32 0 0 0-2.1 1.7h-.1v-1.5h-1.2c0 .7.1 1.5.1 2.4V82zm10.8 0a10.89 10.89 0 0 1-.1-1.9v-2.9c0-1.6-.6-3.2-2.9-3.2a4.62 4.62 0 0 0-2.5.7l.3.9a3.38 3.38 0 0 1 2-.6 1.64 1.64 0 0 1 1.8 1.8v.2c-3 0-4.7 1-4.7 2.9a2.21 2.21 0 0 0 2.4 2.2 2.84 2.84 0 0 0 2.4-1.2l.1 1h1.2zm-1.4-2.6a.6.6 0 0 1-.1.4 1.9 1.9 0 0 1-1.9 1.3 1.21 1.21 0 0 1-1.3-1.3c0-1.5 1.7-1.8 3.3-1.7zm68.7 2.6a10.89 10.89 0 0 1-.1-1.9v-2.9c0-1.6-.6-3.2-2.9-3.2a4.62 4.62 0 0 0-2.5.7l.3.9a3.38 3.38 0 0 1 2-.6 1.64 1.64 0 0 1 1.8 1.8v.2c-3 0-4.7 1-4.7 2.9a2.21 2.21 0 0 0 2.4 2.2 2.84 2.84 0 0 0 2.4-1.2l.1 1h1.2zm-1.4-2.6a.6.6 0 0 1-.1.4 1.9 1.9 0 0 1-1.9 1.3 1.21 1.21 0 0 1-1.3-1.3c0-1.5 1.7-1.8 3.3-1.7zm-3.2-7.6v.9h3.6v-.9zm-53.8 2.4a3.76 3.76 0 0 0-3.8 4.1 3.71 3.71 0 0 0 3.7 4 3.77 3.77 0 0 0 3.9-4.1c-.1-2.4-1.6-4-3.8-4zm-.1 1c1.7 0 2.3 1.7 2.3 3 0 1.7-1 3-2.4 3s-2.4-1.3-2.4-3c.1-1.4.9-3 2.5-3zm11.1 6.8h1.4v-9.6h3.3v-1.2h-8v1.2h3.3zm12-3.6v-.7c0-1.4-.7-3.6-3.2-3.6-2.3 0-3.6 1.8-3.6 4.2a3.6 3.6 0 0 0 3.8 3.9 6.94 6.94 0 0 0 2.6-.5l-.2-1a5.18 5.18 0 0 1-2.1.4 2.56 2.56 0 0 1-2.7-2.7zm-5.4-1a2.3 2.3 0 0 1 2.2-2.3 2 2 0 0 1 2 2.3zm12.7 4.6h1.4v-9.6h3.3v-1.2h-8v1.2h3.3zm11.4 0a10.89 10.89 0 0 1-.1-1.9v-2.9c0-1.6-.6-3.2-2.9-3.2a4.62 4.62 0 0 0-2.5.7l.3.9a3.38 3.38 0 0 1 2-.6 1.64 1.64 0 0 1 1.8 1.8v.2c-3 0-4.7 1-4.7 2.9a2.21 2.21 0 0 0 2.4 2.2 2.84 2.84 0 0 0 2.4-1.2l.1 1h1.2zm-1.4-2.6a.6.6 0 0 1-.1.4 1.9 1.9 0 0 1-1.9 1.3 1.21 1.21 0 0 1-1.3-1.3c0-1.5 1.7-1.8 3.3-1.7zm5 2.6v-7.7h-1.4V82zm-.7-10.7a.9.9 0 0 0-.9.9.88.88 0 0 0 .8.9.84.84 0 0 0 .9-.9.77.77 0 0 0-.8-.9zm3 10.7h1.4v-4.1a1.7 1.7 0 0 1 .1-.7 1.94 1.94 0 0 1 1.9-1.8h.5v-1.3h-.4a2.32 2.32 0 0 0-2.1 1.7h-.1v-1.5h-1.2c0 .7.1 1.5.1 2.4V82zm12.1-7.7l2.3 7.7h1.3l1.2-3.7a16.26 16.26 0 0 0 .7-2.6 18.24 18.24 0 0 0 .7 2.5l1.2 3.7h1.3l2.5-7.7h-1.4l-1.1 3.9a12.88 12.88 0 0 0-.6 2.5c-.2-.8-.4-1.6-.7-2.5l-1.2-3.9h-1.2l-1.3 4c-.3.8-.5 1.7-.7 2.4-.1-.8-.4-1.6-.6-2.5l-1-3.9h-1.4zm12.6 7.7h1.4v-4.7a1.48 1.48 0 0 1 .1-.7 2 2 0 0 1 1.9-1.4c1.3 0 1.8 1.1 1.8 2.3v4.4h1.4v-4.6c0-2.7-1.7-3.3-2.7-3.3a3.26 3.26 0 0 0-1.4.4 2.41 2.41 0 0 0-1 1v-4.8h-1.4V82zm10.3 0v-7.7H261V82zm-.7-10.7a.9.9 0 0 0-.9.9.88.88 0 0 0 .8.9.84.84 0 0 0 .9-.9.72.72 0 0 0-.8-.9zm3.4 1.1v1.9h-1.2v1.1h1.2v4.2a2.83 2.83 0 0 0 .5 2 1.89 1.89 0 0 0 1.5.6 3.26 3.26 0 0 0 1.2-.2l-.1-1.1c-.2 0-.4.1-.8.1-.8 0-1.1-.5-1.1-1.5v-4.2h2v-1.1h-2V72zm6.4 9.6v-7.7h-1.4V82zm-.7-10.7a.9.9 0 0 0-.9.9.88.88 0 0 0 .8.9.84.84 0 0 0 .9-.9.82.82 0 0 0-.8-.9z" fill="#231f20"/><path d="M85.6 60.6a9.76 9.76 0 0 0 1.9.1 4.77 4.77 0 0 0 3.4-1 4.13 4.13 0 0 0 1.2-3 3.51 3.51 0 0 0-1.2-2.8 4.59 4.59 0 0 0-3.1-.9 13.79 13.79 0 0 0-2.2.2zM87 54c.2 0 .5-.1.9-.1a2.45 2.45 0 0 1 2.7 2.6 2.63 2.63 0 0 1-2.9 2.9h-.8V54zm7.4 6.6h1.4V53h-1.4zm3.7-.4a4.85 4.85 0 0 0 2 .5c2 0 2.9-1.1 2.9-2.3s-.6-1.8-2-2.2c-1-.4-1.4-.7-1.4-1.2s.4-.9 1.3-.9a2.7 2.7 0 0 1 1.5.4l.3-1.1a4 4 0 0 0-1.8-.4c-1.6 0-2.7.9-2.7 2.2 0 1.1.8 1.8 2 2.2 1 .3 1.3.7 1.3 1.3s-.5 1-1.4 1a3.2 3.2 0 0 1-1.8-.5zm8.8.4h1.4v-6.4h2.2V53h-5.7v1.2h2.2l-.1 6.4zm5.6 0h1.4v-3.1h.7c.8 0 1.1.3 1.4 1.3a11.79 11.79 0 0 0 .5 1.8h1.4a9.3 9.3 0 0 1-.6-2.1 2 2 0 0 0-1.1-1.5 2.08 2.08 0 0 0 1.4-1.9 1.68 1.68 0 0 0-.7-1.5 3.52 3.52 0 0 0-2.3-.6 11.49 11.49 0 0 0-2.1.2v7.4zm1.3-6.6a5.53 5.53 0 0 1 .9-.1c.9 0 1.5.4 1.5 1.2s-.6 1.2-1.5 1.2h-.8V54zm6.2 6.6h1.4V53H120zm9.3-1.3a3.34 3.34 0 0 1-1.5.3 2.44 2.44 0 0 1-2.6-2.7 2.55 2.55 0 0 1 2.7-2.8 3.34 3.34 0 0 1 1.5.3l.3-1.1a5.35 5.35 0 0 0-1.8-.3 3.78 3.78 0 0 0-4 4 3.6 3.6 0 0 0 3.9 3.8 7.66 7.66 0 0 0 2-.3zm4.2 1.3h1.4v-6.4h2.2V53h-5.7v1.2h2.2v6.4zm14-1.3a3.34 3.34 0 0 1-1.5.3 2.44 2.44 0 0 1-2.6-2.7 2.55 2.55 0 0 1 2.7-2.8 3.34 3.34 0 0 1 1.5.3l.3-1.1a5.35 5.35 0 0 0-1.8-.3 3.78 3.78 0 0 0-4 4 3.6 3.6 0 0 0 3.9 3.8 7.66 7.66 0 0 0 2-.3zm5.4-6.5c-2.1 0-3.6 1.6-3.6 4 0 2.2 1.3 3.9 3.5 3.9s3.6-1.5 3.6-4c0-2.1-1.3-3.9-3.5-3.9zm0 1.1c1.4 0 2.1 1.4 2.1 2.8 0 1.6-.8 2.8-2.1 2.8s-2.1-1.2-2.1-2.8c0-1.4.7-2.8 2.1-2.8zm5.8-1v4.3c0 2.4 1.1 3.4 2.9 3.4s3-1 3-3.4v-4.3h-1.4v4.4c0 1.5-.6 2.2-1.6 2.2s-1.5-.7-1.5-2.2v-4.4zm9.9 7.7v-2.8c0-1.2 0-2.2-.1-3.2a21.48 21.48 0 0 0 1.4 2.6l2 3.3h1.4v-7.6h-1.2v2.6a30.09 30.09 0 0 0 .1 3.1 14.94 14.94 0 0 0-1.3-2.5l-2-3.2h-1.6v7.6l1.3.1zm12.7-1.3a3.34 3.34 0 0 1-1.5.3 2.44 2.44 0 0 1-2.6-2.7 2.55 2.55 0 0 1 2.7-2.8 3.34 3.34 0 0 1 1.5.3l.3-1.1a5.35 5.35 0 0 0-1.8-.3 3.78 3.78 0 0 0-4 4 3.6 3.6 0 0 0 3.9 3.8 7.66 7.66 0 0 0 2-.3zm2.5 1.3h1.4V53h-1.4zm4.1 0h4.5v-1.2h-3.1V53h-1.4zm-86.1-13.4h2v-8.4h-8.9v1.9h7a4.62 4.62 0 0 1-1.3 2.9 7.3 7.3 0 0 1-5.2 2.1c-1 0-4.4-.2-6.1-2.9a6.49 6.49 0 0 1-1.1-3.7c0-4 3.3-6.2 7.2-6.2a8 8 0 0 1 5 1.7 5.3 5.3 0 0 1 1 1.2l2.2-.7a5.89 5.89 0 0 0-1.5-1.9 10.41 10.41 0 0 0-6.9-2.3 9.6 9.6 0 0 0-8.1 3.8 7.87 7.87 0 0 0-1.4 4.5c0 4.5 3.6 8.3 9.1 8.3a9.92 9.92 0 0 0 6-1.8c.3-.3.6-.5.9-.8v2.3zm6.8 0h2.3V31.3h-2.3zm5.6-3.4c.4.7 1.6 2.3 4.9 3.1a17.71 17.71 0 0 0 4.1.5c3.3 0 5.7-.8 7-2.5a4.55 4.55 0 0 0 .8-2.7c0-2.6-1.9-3.7-3.6-4.1a16.21 16.21 0 0 0-2-.3c-1.4-.2-2.9-.2-4.3-.4s-2.3-.3-2.9-.9a1.66 1.66 0 0 1-.5-1.2 2.11 2.11 0 0 1 1.4-2 8.94 8.94 0 0 1 3.8-.6 8.41 8.41 0 0 1 4.9 1.3 7.27 7.27 0 0 1 .9.8l2-.8a4.87 4.87 0 0 0-1.6-1.6 11.4 11.4 0 0 0-6.3-1.6c-1.5 0-7.4.1-7.4 4.6a3.47 3.47 0 0 0 1.1 2.6c1.2 1.1 2.6 1.2 6.6 1.5 3.1.3 5.6.5 5.6 2.7 0 1.9-1.9 3.2-5.4 3.2a10.82 10.82 0 0 1-5.9-1.5 3.69 3.69 0 0 1-1.1-1zm20.7 3.4h10.2c1.7 0 3.9 0 5.3-1.2a4.31 4.31 0 0 0 1.4-3.2 3.92 3.92 0 0 0-3-4l.8-.4a3.13 3.13 0 0 0 1.4-2.9 3.61 3.61 0 0 0-.8-2.4c-1.3-1.6-3.5-1.7-5.2-1.7h-10.1v15.8zM145.1 33a4.85 4.85 0 0 1 2.6.5 2.21 2.21 0 0 1 1 2 2.37 2.37 0 0 1-1.1 2.1 3.78 3.78 0 0 1-2.1.4h-8.3v-5zm.7 6.8a4.08 4.08 0 0 1 2.8.7 2.5 2.5 0 0 1 .9 2.1 2.43 2.43 0 0 1-.9 2 4.43 4.43 0 0 1-2.9.8h-8.6v-5.5h8.7zm19-9c-4.7 0-9.6 2.7-9.6 8.5a7.65 7.65 0 0 0 3.2 6.4 11.41 11.41 0 0 0 6.5 1.8c5.1 0 9.5-2.7 9.5-8.1.1-5.2-4.1-8.6-9.6-8.6zm-.3 2c4.3-.1 7.7 2.2 7.7 6.4 0 2.7-1.4 6.4-7.3 6.4a7.91 7.91 0 0 1-6.1-2.3 5.94 5.94 0 0 1-1.4-4c0-4.7 3.8-6.5 7.1-6.5zm14 14.4h2.2v-6.3h7.7l5.4 6.3h2.9l-5.8-6.7c1.1-.2 4.3-.7 4.3-4.5a4.5 4.5 0 0 0-1.4-3.4 6.54 6.54 0 0 0-4.5-1.3h-10.8v15.9zm11-14c1 0 2.2 0 2.9 1.2a3.37 3.37 0 0 1 .5 1.7 2.62 2.62 0 0 1-.5 1.7c-.9 1.2-2.5 1.2-3.7 1.2h-7.8v-5.7h8.6zm10.6-1.9v15.9h2.2V36.6a22.62 22.62 0 0 0-.1-2.7c.5.6.7.8 1.2 1.5l11.2 11.9h2.2v-16h-2.2v10.9a18.48 18.48 0 0 0 .1 2.3c-.8-.9-.9-1.1-1.7-1.9l-10.7-11.3zm22 15.9h15.2v-2h-13v-5.3h12.1V38h-12v-4.7h12.4v-2h-14.7z" fill="#221f20"/><path d="M49.3 37.8v-.5a11.1 11.1 0 1 0-22.2 0v.6a96.93 96.93 0 0 1 22.2-.1m14.6 3a50.29 50.29 0 0 0-7.4-1.9c-1-.2-1.9-.3-2.9-.5a27.7 27.7 0 0 1 23 0 27.61 27.61 0 0 1-11.5 2.5 4.87 4.87 0 0 0-1.2-.1m7.5-21.5a28.34 28.34 0 0 0-11.2 3.6 26.45 26.45 0 0 0-8.7 7.9 28.34 28.34 0 0 0 11.2-3.6 31.65 31.65 0 0 0 8.7-7.9m-25.5 5.9A28.34 28.34 0 0 1 49.5 14a26.45 26.45 0 0 1 7.9-8.7 28.41 28.41 0 0 1-3.6 11.1 31.79 31.79 0 0 1-7.9 8.8M38.2 23a27.7 27.7 0 0 0 0-23 27.61 27.61 0 0 0-2.5 11.5A30.28 30.28 0 0 0 38.2 23m-15.5-6.7a28.34 28.34 0 0 1-3.6-11.2 30 30 0 0 1 7.9 8.7A28.34 28.34 0 0 1 30.6 25a25.5 25.5 0 0 1-7.9-8.7m-6.5 6.5A28.34 28.34 0 0 0 5 19.2a30 30 0 0 0 8.7 7.9 28.34 28.34 0 0 0 11.2 3.6 26.54 26.54 0 0 0-8.7-7.9m6.7 15.5l-.1.1a103.44 103.44 0 0 0-11.6 2.4A26.25 26.25 0 0 1 0 38.3a27.61 27.61 0 0 1 11.5-2.5 31.06 31.06 0 0 1 11.4 2.5" fill="#eb881c"/><path d="M2.7 47a91 91 0 0 1 52.4-5.6c5.9 1.1 12.7 3.9 16.2 7.3 8.6 8.5-6.6 9.9-16.3 8.7-11.1-1.5-28.8-7.1-34.9 2.6a4.64 4.64 0 0 0-.8 3.6l-.1-.1a27.12 27.12 0 0 1-3-1.3 2 2 0 0 0 1-1.6c0-1.3-1.6-2.3-3.4-2.3s-3.5 1-3.5 2.3a1.9 1.9 0 0 0 .8 1.5c4.4 3.4 10.9 5.4 17.7 5.4 8.1 0 28.7-9 33.6-.8 5.3 8.9-25.7 10.1-24.6 22.8-5.5-11.7 17.5-13.7 17.5-21.3 0-1-.9-1.8-2.1-2.1a3.08 3.08 0 0 0-1.3-.3c-1.9-.1-3.4.9-3.5 2.1a1.85 1.85 0 0 0 .5 1.2 2.68 2.68 0 0 0 1.5 1 9.83 9.83 0 0 1-1.5 1.2 13 13 0 0 1-1.5 1c.4-6.8-11.7-3.9-15.5-3.4-9.1 1.2-27.9.9-25.3-8 2.8-9.5 22.9-7.9 35.8-7.1 6.9.4 13.5-1.2 17.7-5a1.75 1.75 0 0 0 .7-1.4c0-1.3-1.5-2.3-3.4-2.3s-3.5 1-3.5 2.3a2 2 0 0 0 1.1 1.7 20.62 20.62 0 0 1-2.6 1.2 5.27 5.27 0 0 0-1-1.4c-8.3-9.6-36.3-4.6-48.7-1.9" fill="#007597"/></svg>